<?xml version="1.0" encoding="UTF-8"?>
<svg id="Calque_1" xmlns="http://www.w3.org/2000/svg" version="1.1" viewBox="0 0 219.2 218.8">
  <!-- Generator: Adobe Illustrator 30.1.0, SVG Export Plug-In . SVG Version: 2.1.1 Build 136)  -->
  <defs>
    <style>
      .st0 {
        fill: #fff;
      }
    </style>
  </defs>
  <path class="st0" d="M151.4,29.1c4.2,8.4,7.7,18,10.4,28.3h44.3C190.6,28.8,162.8,7.9,129.9,1.8c8.1,5.7,15.4,15,21.6,27.3Z"/>
  <path class="st0" d="M67.8,29.1c6.2-12.3,13.5-21.5,21.6-27.3C56.4,7.9,28.6,28.8,13.2,57.4h44.3c2.7-10.3,6.1-19.8,10.4-28.3Z"/>
  <path class="st0" d="M56.2,115.1c.4,17,2.8,33.2,6.8,47.7h44.1v-47.7h-50.9Z"/>
  <path class="st0" d="M51.1,109.4c0-16.5,1.8-32.4,5.1-47H10.6C3.8,76.6,0,92.6,0,109.5s0,.4,0,.6h51.1c0-.2,0-.5,0-.7Z"/>
  <path class="st0" d="M107.1,0c-13,1.3-25.3,12.3-34.8,31.3-3.9,7.8-7.1,16.6-9.7,26.1h44.5V0Z"/>
  <path class="st0" d="M107.1,62.4h-45.8c-3.4,14.5-5.2,30.5-5.2,47s0,.5,0,.7h51v-47.7Z"/>
  <path class="st0" d="M51.2,115.1H.1c.9,17.3,5.7,33.5,13.7,47.7h44c-3.9-14.6-6.2-30.9-6.6-47.7Z"/>
  <path class="st0" d="M67.8,189.7c-3.3-6.7-6.2-14-8.6-21.8H16.8c16.1,25.5,42.3,43.9,73.1,49.5-8.3-5.7-15.8-15.1-22.1-27.7Z"/>
  <path class="st0" d="M161.4,162.9h44c8-14.3,12.8-30.5,13.7-47.7h-51.1c-.4,16.9-2.7,33.1-6.6,47.7Z"/>
  <path class="st0" d="M64.5,167.9c2.2,7,4.8,13.6,7.8,19.6,9.5,19,21.8,30.1,34.8,31.3v-50.9h-42.6Z"/>
  <path class="st0" d="M168.1,109.4c0,.2,0,.5,0,.7h51.1c0-.2,0-.4,0-.6,0-16.9-3.8-32.9-10.6-47.2h-45.6c3.3,14.6,5.1,30.5,5.1,47Z"/>
  <path class="st0" d="M112.1,162.9h44.1c4-14.5,6.4-30.8,6.8-47.7h-50.9v47.7Z"/>
  <path class="st0" d="M151.4,189.7c-6.3,12.6-13.8,21.9-22.1,27.7,30.8-5.6,57-24,73.1-49.5h-42.4c-2.4,7.9-5.2,15.2-8.6,21.8Z"/>
  <path class="st0" d="M112.1,110.1h51c0-.2,0-.5,0-.7,0-16.5-1.8-32.5-5.2-47h-45.8v47.7Z"/>
  <path class="st0" d="M112.1,218.8c13-1.3,25.3-12.3,34.8-31.3,3-6,5.6-12.6,7.8-19.6h-42.6v50.9Z"/>
  <path class="st0" d="M156.6,57.4c-2.5-9.5-5.8-18.3-9.7-26.1C137.4,12.3,125.1,1.3,112.1,0v57.4h44.5Z"/>
</svg>