<?xml version="1.0" encoding="UTF-8"?>
<svg id="Calque_1" xmlns="http://www.w3.org/2000/svg" version="1.1" viewBox="0 0 392.2 389.2">
  <!-- Generator: Adobe Illustrator 30.1.0, SVG Export Plug-In . SVG Version: 2.1.1 Build 136)  -->
  <defs>
    <style>
      .st0 {
        fill: #fff;
      }
    </style>
  </defs>
  <path class="st0" d="M231,.4l15.5,57.7-9-1.5-5-18.8-22.5-3.8-11.2,16-4.4-.8L228.7,0l2.2.4ZM212.1,30.8l19.3,3.3-6-22.3-13.3,19Z"/>
  <path class="st0" d="M274.2,13.3l7.7,4.5-17.3,29.8c-1.1,2-1.9,4-2.2,6.1-.3,2.1-.2,4.2.2,6.2.5,2,1.4,3.9,2.7,5.7,1.3,1.8,3.1,3.3,5.2,4.6,2.2,1.3,4.4,2,6.6,2.3,2.2.3,4.3.1,6.3-.5,2-.6,3.8-1.5,5.5-2.9,1.7-1.3,3.1-3,4.2-4.9l17.3-29.8,3.4,2-17.3,29.8c-1.4,2.4-3,4.3-5,6-2,1.6-4.2,2.8-6.8,3.4-2.5.6-5.3.6-8.4,0-3.1-.6-6.4-1.9-9.9-3.9-3.2-1.8-5.7-3.9-7.6-6.2-1.9-2.3-3.2-4.8-4-7.3-.7-2.5-.9-5.1-.5-7.7.4-2.6,1.3-5.1,2.7-7.5l17.2-29.6Z"/>
  <path class="st0" d="M361.2,86.9l-2.6,2.2-12.3-14.8-38.1,31.8-5.7-6.9,38.1-31.8-12.3-14.8,2.6-2.2,30.3,36.4Z"/>
  <path class="st0" d="M328.7,146.2c-1.4-3.9-2-7.7-1.8-11.6.2-3.8,1-7.4,2.6-10.8,1.5-3.3,3.6-6.3,6.3-8.8,2.7-2.6,5.9-4.5,9.5-5.8,2.4-.9,4.8-1.3,7.2-1.5,2.4-.1,4.8,0,7.2.5,2.3.5,4.6,1.3,6.7,2.4,2.2,1.1,4.2,2.5,6,4.1,1.8,1.6,3.5,3.5,5,5.7,1.5,2.1,2.6,4.5,3.6,7.1.9,2.6,1.5,5.2,1.7,7.8.2,2.6.1,5.1-.2,7.5-.4,2.4-1.1,4.8-2.1,7-1,2.2-2.2,4.3-3.7,6.1-1.5,1.9-3.2,3.5-5.2,5-2,1.4-4.2,2.6-6.6,3.4-2.4.9-4.9,1.4-7.3,1.5-2.5.2-4.9,0-7.3-.5-2.4-.5-4.7-1.3-6.9-2.4-2.2-1.1-4.2-2.4-6.1-4.1-1.9-1.6-3.6-3.5-5-5.7-1.5-2.1-2.7-4.5-3.6-7.1ZM331.2,145.3c1,2.9,2.5,5.2,4.5,7,2,1.8,4.3,3,7,3.8,2.7.7,5.6,1,8.8.7,3.2-.3,6.5-1,10-2.3,3.4-1.2,6.5-2.7,9.1-4.5,2.6-1.8,4.7-3.8,6.2-6.1s2.5-4.7,2.8-7.3,0-5.3-1-8.2c-1-2.9-2.5-5.3-4.5-7.1-1.9-1.8-4.2-3.1-6.8-3.8-2.6-.8-5.5-1-8.6-.7-3.1.3-6.4,1-9.9,2.2-3.5,1.2-6.5,2.8-9.2,4.5-2.6,1.8-4.8,3.8-6.4,6.1-1.6,2.3-2.6,4.7-3,7.3-.4,2.6,0,5.4.9,8.3Z"/>
  <path class="st0" d="M392.2,183.4l-.6,8.9-34.4-2.2c-2.3-.1-4.4,0-6.4.7-2,.6-3.8,1.6-5.4,3-1.6,1.3-2.9,3-3.9,5-1,2-1.6,4.2-1.7,6.7-.2,2.5.1,4.8.9,6.9.7,2.1,1.8,3.9,3.2,5.4,1.4,1.5,3.1,2.7,5,3.6,1.9.9,4,1.4,6.3,1.6l34.4,2.2-.3,3.9-34.4-2.2c-2.7-.2-5.2-.8-7.6-1.8-2.3-1-4.3-2.6-6-4.5-1.7-2-2.9-4.5-3.8-7.5s-1.2-6.5-.9-10.7c.2-3.6,1-6.8,2.2-9.6,1.2-2.7,2.8-5,4.8-6.8,1.9-1.8,4.2-3.1,6.7-3.9s5.1-1.1,7.9-.9l34.2,2.2Z"/>
  <path class="st0" d="M381.8,256l-7.5,16.8c-1.3,2.9-2.7,5.3-4.3,7.2-1.6,1.9-3.3,3.4-5.1,4.3-1.8,1-3.6,1.5-5.5,1.5-1.9,0-3.7-.3-5.6-1.1-1.5-.7-2.8-1.6-3.9-2.8s-1.9-2.5-2.5-4c-.6-1.5-1-3.2-1.1-5-.1-1.8,0-3.7.3-5.6l-31.4,7.2,4.2-9.5,30.3-6.7,2.5-5.7-22.8-10.2,3.6-8.2,48.5,21.7ZM354.9,253.7l-2.1,4.7c-.8,1.8-1.3,3.6-1.5,5.4-.2,1.8-.1,3.4.3,4.9.4,1.5,1.1,2.9,2.1,4.1,1,1.2,2.3,2.2,3.9,2.9,1.5.7,2.9,1,4.4,1,1.4,0,2.8-.2,4.1-.7,1.3-.5,2.4-1.3,3.5-2.3,1-1,1.9-2.3,2.6-3.8l3.2-7.2-20.2-9Z"/>
  <path class="st0" d="M321.5,344.6l-14.9,9.5c-4.6,2.9-8.8,5-12.7,6.3-3.9,1.3-7.5,1.7-10.9,1.2-3.9-.5-7.4-1.8-10.4-3.8-3.1-2-5.6-4.6-7.8-7.9-2-3.1-3.3-6.5-4-10-.6-3.5-.5-7,.4-10.4s2.5-6.8,5-10.1c2.5-3.3,5.8-6.2,9.9-8.9l16.7-10.7,28.6,44.7ZM287.5,308l-8,5.1c-2.5,1.6-4.6,3.5-6.3,5.8-1.7,2.3-2.8,4.7-3.4,7.4-.6,2.7-.6,5.6,0,8.6.6,3,1.9,6.1,3.9,9.2,1.8,2.8,3.8,5,6.2,6.7,2.4,1.7,4.9,2.9,7.6,3.5s5.4.7,8.3.2c2.8-.5,5.6-1.6,8.2-3.3l8-5.1-24.4-38.1Z"/>
  <path class="st0" d="M253.4,381.1l-8.8,1.6-6.1-33.9c-.4-2.2-1.2-4.3-2.3-6.1-1.1-1.8-2.5-3.3-4.2-4.6-1.7-1.2-3.6-2.1-5.8-2.6s-4.5-.5-6.9,0c-2.5.4-4.7,1.3-6.5,2.5s-3.3,2.7-4.5,4.4c-1.1,1.7-1.9,3.6-2.3,5.7-.4,2.1-.4,4.3,0,6.5l6.1,33.9-3.9.7-6.1-33.9c-.5-2.7-.5-5.3,0-7.8.4-2.5,1.4-4.8,3-6.9,1.5-2.1,3.7-3.9,6.4-5.5s6.1-2.7,10.1-3.4c3.6-.6,6.9-.7,9.8-.2s5.5,1.5,7.7,3c2.2,1.4,4,3.3,5.4,5.5,1.4,2.2,2.3,4.7,2.8,7.4l6,33.7Z"/>
  <path class="st0" d="M135.5,380.9l-8.2-4.1-.2-45.7-.4-.2-36.4,27.3-8-4,23.8-47.5,8,4-19.5,38.9h.3c0,.1,39-29,39-29l1.6.8.3,48.5.5.3,19.4-38.6,3.5,1.8-23.8,47.5Z"/>
  <path class="st0" d="M84.3,278.4c2.5,3.3,4.2,6.8,5.2,10.5,1,3.7,1.3,7.4.8,11-.4,3.6-1.6,7.1-3.4,10.3s-4.2,6.1-7.3,8.4c-2,1.5-4.2,2.7-6.5,3.6-2.3.9-4.6,1.4-7,1.7-2.4.2-4.8.1-7.2-.3-2.4-.4-4.7-1.1-7-2.1-2.3-1-4.4-2.3-6.4-3.9-2-1.6-3.9-3.5-5.6-5.7s-3-4.5-4-6.9c-1-2.4-1.7-4.8-2.1-7.3-.4-2.5-.4-4.9-.2-7.3s.8-4.7,1.7-7c.8-2.2,2-4.3,3.5-6.3,1.5-2,3.2-3.7,5.2-5.2,2-1.6,4.2-2.8,6.5-3.7,2.3-.9,4.7-1.5,7.1-1.7,2.4-.3,4.9-.2,7.3.2,2.4.4,4.8,1,7.1,2,2.3,1,4.5,2.3,6.5,3.9s3.9,3.5,5.6,5.7ZM82.2,280c-1.8-2.4-4-4.2-6.4-5.3-2.4-1.1-5-1.6-7.8-1.5-2.8,0-5.6.8-8.6,2-3,1.2-5.9,3-8.8,5.2-2.9,2.2-5.3,4.6-7.3,7.1-1.9,2.5-3.3,5-4.1,7.6-.8,2.6-1,5.2-.5,7.8.4,2.6,1.6,5.1,3.4,7.5,1.9,2.5,4,4.3,6.4,5.4,2.4,1.1,4.9,1.7,7.6,1.6,2.7,0,5.5-.7,8.4-1.9s5.8-2.9,8.7-5.1c2.9-2.2,5.4-4.6,7.4-7.1,2-2.5,3.4-5.1,4.2-7.7.8-2.6,1.1-5.3.7-7.9-.4-2.6-1.5-5.2-3.4-7.6Z"/>
  <path class="st0" d="M12.3,261.4l-1.2-4.9,29.4-43v-.4c0,0-37.8,9.3-37.8,9.3l-.9-3.8,52.8-13,.5,2-32.9,46.9v.3c0,0,40.8-10,40.8-10l1,3.9-51.6,12.7Z"/>
  <path class="st0" d="M0,188.5l2.6-17.5c.8-5.4,2-9.9,3.6-13.7s3.7-6.7,6.3-9c3-2.6,6.2-4.4,9.7-5.4,3.5-1,7.2-1.2,11.1-.6,3.7.5,7.1,1.7,10.1,3.5,3,1.8,5.6,4.2,7.6,7.1,2,2.9,3.5,6.4,4.3,10.4.8,4,.9,8.4.2,13.3l-2.9,19.6L0,188.5ZM50,186.8l1.4-9.4c.4-3,.4-5.8-.2-8.6-.6-2.8-1.7-5.3-3.3-7.5-1.6-2.2-3.8-4.1-6.4-5.6-2.6-1.5-5.8-2.6-9.5-3.1-3.2-.5-6.3-.4-9.2.3-2.9.7-5.4,1.8-7.6,3.4-2.2,1.6-4.1,3.7-5.6,6.1-1.5,2.5-2.4,5.3-2.9,8.4l-1.4,9.4,44.8,6.6Z"/>
  <path class="st0" d="M35.3,81.7l3,1.7-13.5,24.5,16.6,9.1,9-16.4,3,1.7-9,16.4,20.8,11.5,13.5-24.5,3,1.7-17.8,32.3-46.5-25.6,17.8-32.3Z"/>
</svg>